<svg width="18" height="18" viewBox="0 0 18 18" fill="none" xmlns="http://www.w3.org/2000/svg">
<rect width="18" height="18" rx="9" fill="white"/>
<path d="M14.8863 6.70805H12.8131L10.3919 3.5L9.66557 4.04476L11.6782 6.70802H6.51805L8.53057 4.05987L7.80424 3.5L5.38313 6.70805H3.14346C3.02313 6.70805 2.90765 6.75586 2.82247 6.84105C2.73739 6.92612 2.68958 7.0416 2.68958 7.16204V9.00818H15.3402V7.16204C15.3402 7.04161 15.2924 6.92613 15.2073 6.84105C15.1221 6.75587 15.0066 6.70805 14.8863 6.70805H14.8863Z" fill="#8D6B59"/>
<path d="M4.8234 14.1832C4.84715 14.2819 4.90319 14.3699 4.98278 14.433C5.06237 14.4961 5.16075 14.5307 5.2623 14.5313H12.7679C12.8695 14.5307 12.9678 14.4961 13.0474 14.433C13.127 14.3699 13.1831 14.2819 13.2068 14.1832L14.251 9.61328H3.79456L4.8234 14.1832Z" fill="#8D6B59"/>
</svg>
