<svg width="21" height="20" viewBox="0 0 21 20" fill="none" xmlns="http://www.w3.org/2000/svg">
<path d="M13.8333 10.7503V14.2503C13.8333 17.167 12.6666 18.3337 9.74996 18.3337H6.24996C3.33329 18.3337 2.16663 17.167 2.16663 14.2503V10.7503C2.16663 7.83366 3.33329 6.66699 6.24996 6.66699H9.74996C12.6666 6.66699 13.8333 7.83366 13.8333 10.7503Z" fill="white"/>
<path d="M14.7491 1.66699H11.2491C8.74562 1.66699 7.53748 2.53264 7.24502 4.61607C7.1676 5.16758 7.62906 5.62533 8.18598 5.62533H9.74907C13.2491 5.62533 14.8741 7.25033 14.8741 10.7503V12.3134C14.8741 12.8703 15.3318 13.3318 15.8833 13.2544C17.9668 12.9619 18.8324 11.7538 18.8324 9.25033V5.75033C18.8324 2.83366 17.6657 1.66699 14.7491 1.66699Z" fill="white"/>
</svg>
