<svg width="17" height="18" viewBox="0 0 17 18" fill="none" xmlns="http://www.w3.org/2000/svg">
<rect y="0.5" width="17" height="17" rx="8.5" fill="#8D6B59"/>
<path d="M8.5 7.47078C8.06963 7.47078 7.65688 7.63198 7.35256 7.91891C7.04824 8.20584 6.87727 8.595 6.87727 9.00078C6.87727 9.40656 7.04824 9.79572 7.35256 10.0827C7.65688 10.3696 8.06963 10.5308 8.5 10.5308C8.93037 10.5308 9.34312 10.3696 9.64744 10.0827C9.95176 9.79572 10.1227 9.40656 10.1227 9.00078C10.1227 8.595 9.95176 8.20584 9.64744 7.91891C9.34312 7.63198 8.93037 7.47078 8.5 7.47078ZM8.5 11.5508C7.78271 11.5508 7.0948 11.2821 6.5876 10.8039C6.0804 10.3257 5.79545 9.67708 5.79545 9.00078C5.79545 8.32448 6.0804 7.67588 6.5876 7.19766C7.0948 6.71944 7.78271 6.45078 8.5 6.45078C9.21729 6.45078 9.9052 6.71944 10.4124 7.19766C10.9196 7.67588 11.2045 8.32448 11.2045 9.00078C11.2045 9.67708 10.9196 10.3257 10.4124 10.8039C9.9052 11.2821 9.21729 11.5508 8.5 11.5508ZM8.5 5.17578C5.79545 5.17578 3.48577 6.76188 2.55 9.00078C3.48577 11.2397 5.79545 12.8258 8.5 12.8258C11.2045 12.8258 13.5142 11.2397 14.45 9.00078C13.5142 6.76188 11.2045 5.17578 8.5 5.17578Z" fill="#F0EFF4"/>
</svg>
