<svg width="20" height="20" viewBox="0 0 20 20" fill="none" xmlns="http://www.w3.org/2000/svg">
<path fill-rule="evenodd" clip-rule="evenodd" d="M19.0318 7.96563C18.76 7.64072 18.2769 7.59545 17.9497 7.86733L13.5553 11.529H2.31336C1.88935 11.529 1.54529 11.8731 1.54529 12.297V15.8346C1.54529 17.6954 3.05989 19.2092 4.92068 19.2092H15.0669C16.9278 19.2092 18.4415 17.6954 18.4415 15.8346V12.297C18.4415 11.8731 18.0982 11.529 17.6735 11.529H15.9555L18.9338 9.04682C19.2594 8.77576 19.304 8.2912 19.0321 7.96549" fill="white"/>
<path fill-rule="evenodd" clip-rule="evenodd" d="M6.15341 9.22564C6.35149 9.22564 6.54811 9.1489 6.69636 9.00064L9.76829 5.92857C10.0449 5.65214 10.0702 5.21124 9.82521 4.90562L6.75314 1.06562C6.62417 0.905172 6.436 0.802181 6.23097 0.781421C6.0274 0.759992 5.81927 0.823743 5.66111 0.955795L1.05311 4.79579C0.867348 4.95088 0.765162 5.18446 0.778287 5.42634C0.792081 5.66822 0.917974 5.89026 1.11927 6.0246L5.72727 9.09666C5.85705 9.18345 6.00611 9.22564 6.15358 9.22564" fill="white"/>
<path fill-rule="evenodd" clip-rule="evenodd" d="M10.7614 8.45788C11.1853 8.45788 11.5293 8.11382 11.5293 7.68981C11.5293 7.26593 11.1853 6.92188 10.7614 6.92188C10.3375 6.92188 9.99347 7.26593 9.99347 7.68981C9.99347 8.11382 10.3375 8.45788 10.7614 8.45788Z" fill="white"/>
<path fill-rule="evenodd" clip-rule="evenodd" d="M9.22539 9.22656C8.80152 9.22656 8.45746 9.57062 8.45746 9.99463C8.45746 10.4185 8.80152 10.7626 9.22539 10.7626C9.6494 10.7626 9.99346 10.4185 9.99346 9.99463C9.99346 9.57062 9.6494 9.22656 9.22539 9.22656Z" fill="white"/>
</svg>
