<svg width="25" height="24" viewBox="0 0 25 24" fill="none" xmlns="http://www.w3.org/2000/svg">
<path fill-rule="evenodd" clip-rule="evenodd" d="M21.365 9.96563C21.0931 9.64072 20.61 9.59545 20.2828 9.86733L15.8884 13.529H4.64649C4.22248 13.529 3.87842 13.8731 3.87842 14.297V17.8346C3.87842 19.6954 5.39302 21.2092 7.25381 21.2092H17.4C19.2609 21.2092 20.7746 19.6954 20.7746 17.8346V14.297C20.7746 13.8731 20.4313 13.529 20.0067 13.529H18.2886L21.2669 11.0468C21.5925 10.7758 21.6371 10.2912 21.3652 9.96549" fill="#B2AFBB"/>
<path fill-rule="evenodd" clip-rule="evenodd" d="M8.4866 11.2256C8.68468 11.2256 8.8813 11.1489 9.02955 11.0006L12.1015 7.92857C12.378 7.65214 12.4034 7.21124 12.1584 6.90562L9.08633 3.06562C8.95736 2.90517 8.76919 2.80218 8.56416 2.78142C8.36059 2.75999 8.15246 2.82374 7.9943 2.95579L3.3863 6.79579C3.20054 6.95088 3.09835 7.18446 3.11148 7.42634C3.12527 7.66822 3.25116 7.89026 3.45246 8.0246L8.06046 11.0967C8.19024 11.1834 8.3393 11.2256 8.48677 11.2256" fill="#B2AFBB"/>
<path fill-rule="evenodd" clip-rule="evenodd" d="M13.0946 10.4579C13.5185 10.4579 13.8625 10.1138 13.8625 9.68981C13.8625 9.26593 13.5185 8.92188 13.0946 8.92188C12.6707 8.92188 12.3267 9.26593 12.3267 9.68981C12.3267 10.1138 12.6707 10.4579 13.0946 10.4579Z" fill="#B2AFBB"/>
<path fill-rule="evenodd" clip-rule="evenodd" d="M11.5586 11.2256C11.1347 11.2256 10.7906 11.5696 10.7906 11.9937C10.7906 12.4175 11.1347 12.7616 11.5586 12.7616C11.9826 12.7616 12.3267 12.4175 12.3267 11.9937C12.3267 11.5696 11.9826 11.2256 11.5586 11.2256Z" fill="#B2AFBB"/>
</svg>
