<svg width="46" height="7" viewBox="0 0 46 7" fill="none" xmlns="http://www.w3.org/2000/svg">
<path d="M0 0.75038C0.123162 0.755977 0.281131 0.761575 0.473907 0.767172C0.672038 0.772769 0.867491 0.775568 1.06027 0.775568C1.3173 0.775568 1.56095 0.772769 1.79121 0.767172C2.02682 0.761575 2.19282 0.758776 2.28921 0.758776C2.88896 0.758776 3.33609 0.881915 3.63061 1.12819C3.93048 1.37447 4.08042 1.69071 4.08042 2.07692C4.08042 2.27283 4.0349 2.46873 3.94387 2.66463C3.85819 2.85494 3.71629 3.02845 3.51816 3.18517C3.32003 3.3363 3.05764 3.45664 2.73099 3.54619V3.56299C3.1808 3.61336 3.53422 3.71411 3.79126 3.86524C4.04829 4.01636 4.23036 4.19827 4.33745 4.41097C4.44455 4.61806 4.4981 4.83636 4.4981 5.06584C4.4981 5.39608 4.41778 5.68434 4.25713 5.93061C4.09648 6.17129 3.86355 6.3588 3.55832 6.49313C3.25844 6.62747 2.89699 6.69464 2.47396 6.69464C2.35615 6.69464 2.17676 6.69184 1.93579 6.68624C1.70018 6.67504 1.41369 6.66945 1.07633 6.66945C0.872846 6.66945 0.672038 6.67225 0.473907 6.67784C0.281131 6.67784 0.123162 6.68344 0 6.69464L0 6.52672C0.182066 6.51552 0.318616 6.49313 0.409649 6.45955C0.500682 6.42597 0.559586 6.3588 0.58636 6.25805C0.618489 6.1573 0.634554 6.00618 0.634554 5.80468L0.634554 1.64034C0.634554 1.43324 0.618489 1.28212 0.58636 1.18696C0.559586 1.08621 0.498004 1.01905 0.401616 0.985464C0.310583 0.946283 0.176711 0.923894 0 0.918297L0 0.75038ZM2.12053 0.918297C1.89027 0.918297 1.73766 0.965873 1.66269 1.06103C1.59308 1.15618 1.55827 1.34928 1.55827 1.64034L1.55827 5.80468C1.55827 6.00058 1.57433 6.14891 1.60646 6.24966C1.63859 6.35041 1.69482 6.41757 1.77514 6.45115C1.86082 6.48474 1.98398 6.50153 2.14463 6.50153C2.62657 6.50153 2.97464 6.37559 3.18883 6.12372C3.40838 5.86625 3.51816 5.50243 3.51816 5.03226C3.51816 4.60127 3.40838 4.26824 3.18883 4.03315C2.97464 3.79807 2.61854 3.68053 2.12053 3.68053L1.3414 3.68053C1.3414 3.68053 1.3414 3.65814 1.3414 3.61336C1.3414 3.56299 1.3414 3.5378 1.3414 3.5378L2.03218 3.5378C2.3267 3.5378 2.55428 3.47623 2.71493 3.35309C2.87557 3.22435 2.98535 3.05644 3.04425 2.84934C3.10315 2.63665 3.13261 2.40996 3.13261 2.16928C3.13261 1.75508 3.05496 1.44444 2.89967 1.23734C2.74438 1.02464 2.48466 0.918297 2.12053 0.918297ZM11.6853 0.75038V0.918297C11.5086 0.929491 11.3747 0.963075 11.2837 1.01905C11.1927 1.07502 11.1311 1.16737 11.099 1.29611C11.0668 1.41925 11.0508 1.59556 11.0508 1.82505V4.25145C11.0508 4.63206 11.0267 4.97069 10.9785 5.26734C10.9303 5.56399 10.8446 5.81867 10.7214 6.03136C10.5876 6.26645 10.3894 6.45675 10.127 6.60228C9.87001 6.74221 9.5621 6.81218 9.20333 6.81218C8.94629 6.81218 8.69729 6.78139 8.45632 6.71982C8.21535 6.65825 8.00383 6.54071 7.82177 6.3672C7.66112 6.21607 7.53528 6.05095 7.44425 5.87184C7.35322 5.69273 7.29163 5.47724 7.2595 5.22536C7.22738 4.96789 7.21131 4.65165 7.21131 4.27663L7.21131 1.64034C7.21131 1.43324 7.19525 1.28212 7.16312 1.18696C7.13634 1.08621 7.07744 1.01905 6.98641 0.985464C6.89537 0.946283 6.75882 0.923894 6.57676 0.918297V0.75038C6.69992 0.755977 6.85789 0.761575 7.05066 0.767172C7.24879 0.772769 7.46031 0.775568 7.68522 0.775568C7.8887 0.775568 8.08951 0.772769 8.28764 0.767172C8.49113 0.761575 8.65713 0.755977 8.78564 0.75038V0.918297C8.60358 0.923894 8.46435 0.946283 8.36796 0.985464C8.27693 1.01905 8.21535 1.08621 8.18322 1.18696C8.15109 1.28212 8.13503 1.43324 8.13503 1.64034V4.5453C8.13503 4.83076 8.14841 5.09383 8.17519 5.33451C8.20732 5.57519 8.26355 5.78509 8.34387 5.9642C8.42955 6.13771 8.55271 6.27484 8.71335 6.37559C8.87936 6.47075 9.09355 6.51832 9.35594 6.51832C9.7522 6.51832 10.0574 6.42597 10.2716 6.24126C10.4912 6.05095 10.6438 5.79348 10.7295 5.46884C10.8205 5.13861 10.866 4.76359 10.866 4.3438V1.85863C10.866 1.61795 10.8446 1.43324 10.8018 1.30451C10.7589 1.17577 10.6839 1.08342 10.5769 1.02744C10.4698 0.965873 10.3171 0.929491 10.119 0.918297V0.75038C10.2208 0.755977 10.3519 0.761575 10.5126 0.767172C10.6732 0.772769 10.8205 0.775568 10.9544 0.775568C11.0936 0.775568 11.2275 0.772769 11.356 0.767172C11.4899 0.761575 11.5996 0.755977 11.6853 0.75038ZM16.0034 0.75038V0.918297C15.8214 0.923894 15.6821 0.946283 15.5858 0.985464C15.4947 1.01905 15.4331 1.08621 15.401 1.18696C15.3689 1.28212 15.3528 1.43324 15.3528 1.64034V5.83826C15.3528 6.02856 15.3662 6.17129 15.393 6.26645C15.4251 6.3616 15.484 6.42597 15.5697 6.45955C15.6607 6.48754 15.7892 6.50153 15.9552 6.50153H16.4773C16.7076 6.50153 16.9004 6.46795 17.0557 6.40078C17.2163 6.33361 17.3502 6.23286 17.4573 6.09853C17.5644 5.9642 17.6474 5.79068 17.7063 5.57799C17.7652 5.36529 17.8107 5.11622 17.8428 4.83076H18.0276C18.0115 5.00987 18.0035 5.24495 18.0035 5.53601C18.0035 5.64795 18.0062 5.81307 18.0115 6.03136C18.0222 6.24406 18.0383 6.46515 18.0597 6.69464C17.7866 6.68344 17.4787 6.67784 17.136 6.67784C16.7933 6.67225 16.4881 6.66945 16.2203 6.66945C16.0971 6.66945 15.9392 6.66945 15.7464 6.66945C15.5536 6.66945 15.3448 6.67225 15.1199 6.67784C14.9003 6.67784 14.6754 6.68064 14.4452 6.68624C14.2203 6.68624 14.0034 6.68904 13.7945 6.69464V6.52672C13.9766 6.51552 14.1132 6.49313 14.2042 6.45955C14.2952 6.42597 14.3541 6.3588 14.3809 6.25805C14.413 6.1573 14.4291 6.00618 14.4291 5.80468V1.64034C14.4291 1.43324 14.413 1.28212 14.3809 1.18696C14.3541 1.08621 14.2925 1.01905 14.1962 0.985464C14.1051 0.946283 13.9713 0.923894 13.7945 0.918297V0.75038C13.9177 0.755977 14.0757 0.761575 14.2685 0.767172C14.4666 0.772769 14.6781 0.775568 14.903 0.775568C15.1065 0.775568 15.3073 0.772769 15.5054 0.767172C15.7089 0.761575 15.8749 0.755977 16.0034 0.75038ZM22.5876 0.716797L24.5475 5.98938C24.6224 6.19648 24.7081 6.33641 24.8045 6.40918C24.9062 6.48194 25 6.52112 25.0856 6.52672V6.69464C24.9571 6.68344 24.8045 6.67784 24.6278 6.67784C24.4564 6.67225 24.2824 6.66945 24.1057 6.66945C23.8808 6.66945 23.6719 6.67225 23.4792 6.67784C23.2864 6.67784 23.1311 6.68344 23.0133 6.69464V6.52672C23.2864 6.51552 23.4577 6.46795 23.5274 6.38399C23.6023 6.29443 23.5863 6.10693 23.4792 5.82147L22.0334 1.74109L22.1619 1.58996L20.8285 5.23376C20.7321 5.48563 20.6732 5.69553 20.6518 5.86345C20.6357 6.03136 20.6491 6.1629 20.692 6.25805C20.7401 6.3532 20.8205 6.42037 20.9329 6.45955C21.0454 6.49873 21.1846 6.52112 21.3506 6.52672V6.69464C21.19 6.68344 21.0266 6.67784 20.8606 6.67784C20.7 6.67225 20.5474 6.66945 20.4028 6.66945C20.2743 6.66945 20.1591 6.67225 20.0574 6.67784C19.961 6.67784 19.8727 6.68344 19.7923 6.69464V6.52672C19.9048 6.49873 20.0172 6.42877 20.1297 6.31682C20.2421 6.20488 20.3492 6.01457 20.451 5.74591L22.3145 0.716797C22.3573 0.716797 22.4028 0.716797 22.451 0.716797C22.4992 0.716797 22.5447 0.716797 22.5876 0.716797ZM23.431 4.27663V4.44455H21.0373L21.1177 4.27663H23.431ZM31.3989 0.75038V0.918297C31.2918 0.946283 31.1767 1.02185 31.0535 1.14498C30.9357 1.26812 30.826 1.46683 30.7242 1.74109L28.9009 6.72822C28.8795 6.72822 28.858 6.72822 28.8366 6.72822C28.8152 6.72822 28.7911 6.72822 28.7643 6.72822C28.7429 6.72822 28.7215 6.72822 28.7001 6.72822C28.6786 6.72822 28.6572 6.72822 28.6358 6.72822L26.6438 1.45563C26.5635 1.24853 26.4751 1.1086 26.3787 1.03584C26.2823 0.963075 26.1913 0.923894 26.1056 0.918297V0.75038C26.2288 0.755977 26.3787 0.761575 26.5554 0.767172C26.7375 0.772769 26.9142 0.775568 27.0856 0.775568C27.3051 0.775568 27.5113 0.772769 27.7041 0.767172C27.9022 0.761575 28.0602 0.755977 28.178 0.75038V0.918297C28.0013 0.923894 27.8647 0.946283 27.7683 0.985464C27.6719 1.02464 27.6184 1.09461 27.6077 1.19536C27.6023 1.29051 27.6344 1.43324 27.7041 1.62355L29.19 5.67874L29.0455 5.84665L30.3467 2.27003C30.4699 1.9286 30.5314 1.66273 30.5314 1.47242C30.5314 1.27652 30.4725 1.13659 30.3547 1.05263C30.2369 0.968672 30.0656 0.923894 29.8407 0.918297V0.75038C30.0067 0.755977 30.17 0.761575 30.3306 0.767172C30.4913 0.772769 30.6439 0.775568 30.7885 0.775568C30.9223 0.775568 31.0375 0.772769 31.1339 0.767172C31.2302 0.761575 31.3186 0.755977 31.3989 0.75038ZM38.0784 0.75038V0.918297C37.907 0.946283 37.7357 1.01065 37.5643 1.1114C37.3983 1.20655 37.2296 1.36608 37.0583 1.58996L35.5161 3.60497L35.7892 3.09282L37.7169 6.01457C37.8026 6.14891 37.8936 6.25525 37.99 6.33361C38.0918 6.41197 38.2203 6.47634 38.3756 6.52672V6.69464C38.231 6.68344 38.057 6.67784 37.8535 6.67784C37.65 6.67225 37.4706 6.66945 37.3153 6.66945C37.2189 6.66945 37.0985 6.67225 36.9539 6.67784C36.8146 6.67784 36.6379 6.68344 36.4237 6.69464V6.52672C36.6219 6.51552 36.7424 6.48194 36.7852 6.42597C36.8334 6.37 36.8146 6.27764 36.729 6.14891L35.5643 4.25984C35.4679 4.10312 35.3822 3.98558 35.3072 3.90722C35.2323 3.82326 35.1546 3.77008 35.0743 3.74769C34.994 3.71971 34.8949 3.70292 34.7771 3.69732V3.52101C35.002 3.51541 35.1948 3.46224 35.3554 3.36149C35.5214 3.26074 35.6767 3.1236 35.8213 2.95009L36.488 2.06853C36.6754 1.82785 36.7959 1.62355 36.8494 1.45563C36.903 1.28212 36.8896 1.15058 36.8093 1.06103C36.729 0.971471 36.579 0.923894 36.3595 0.918297V0.75038C36.4719 0.755977 36.5817 0.761575 36.6888 0.767172C36.8013 0.767172 36.9137 0.769971 37.0262 0.775568C37.144 0.775568 37.2591 0.775568 37.3715 0.775568C37.5161 0.775568 37.6473 0.772769 37.7651 0.767172C37.8883 0.761575 37.9927 0.755977 38.0784 0.75038ZM35.4438 0.75038V0.918297C35.2671 0.923894 35.1332 0.946283 35.0422 0.985464C34.9511 1.01905 34.8896 1.08621 34.8574 1.18696C34.8253 1.28212 34.8092 1.43324 34.8092 1.64034V5.80468C34.8092 6.00618 34.8253 6.1573 34.8574 6.25805C34.8896 6.3588 34.9511 6.42597 35.0422 6.45955C35.1332 6.49313 35.2671 6.51552 35.4438 6.52672V6.69464C35.3153 6.68344 35.152 6.67784 34.9538 6.67784C34.761 6.67225 34.5629 6.66945 34.3594 6.66945C34.1345 6.66945 33.923 6.67225 33.7249 6.67784C33.5321 6.67784 33.3741 6.68344 33.251 6.69464V6.52672C33.433 6.51552 33.5696 6.49313 33.6606 6.45955C33.7517 6.42597 33.8106 6.3588 33.8373 6.25805C33.8695 6.1573 33.8855 6.00618 33.8855 5.80468V1.64034C33.8855 1.43324 33.8695 1.28212 33.8373 1.18696C33.8106 1.08621 33.749 1.01905 33.6526 0.985464C33.5616 0.946283 33.4277 0.923894 33.251 0.918297V0.75038C33.3741 0.755977 33.5321 0.761575 33.7249 0.767172C33.923 0.772769 34.1345 0.775568 34.3594 0.775568C34.5629 0.775568 34.761 0.772769 34.9538 0.767172C35.152 0.761575 35.3153 0.755977 35.4438 0.75038ZM42.6794 0.716797L44.6394 5.98938C44.7143 6.19648 44.8 6.33641 44.8964 6.40918C44.9981 6.48194 45.0918 6.52112 45.1775 6.52672V6.69464C45.049 6.68344 44.8964 6.67784 44.7197 6.67784C44.5483 6.67225 44.3743 6.66945 44.1976 6.66945C43.9727 6.66945 43.7638 6.67225 43.5711 6.67784C43.3783 6.67784 43.223 6.68344 43.1052 6.69464V6.52672C43.3783 6.51552 43.5496 6.46795 43.6192 6.38399C43.6942 6.29443 43.6782 6.10693 43.5711 5.82147L42.1251 1.74109L42.2536 1.58996L40.9203 5.23376C40.8239 5.48563 40.765 5.69553 40.7436 5.86345C40.7275 6.03136 40.7409 6.1629 40.7837 6.25805C40.8319 6.3532 40.9122 6.42037 41.0247 6.45955C41.1372 6.49873 41.2764 6.52112 41.4424 6.52672V6.69464C41.2817 6.68344 41.1184 6.67784 40.9524 6.67784C40.7918 6.67225 40.6392 6.66945 40.4946 6.66945C40.3661 6.66945 40.2509 6.67225 40.1492 6.67784C40.0528 6.67784 39.9644 6.68344 39.8841 6.69464V6.52672C39.9966 6.49873 40.109 6.42877 40.2215 6.31682C40.3339 6.20488 40.441 6.01457 40.5428 5.74591L42.4063 0.716797C42.4491 0.716797 42.4946 0.716797 42.5428 0.716797C42.591 0.716797 42.6365 0.716797 42.6794 0.716797ZM43.5229 4.27663V4.44455H41.1291L41.2094 4.27663H43.5229Z" fill="white"/>
</svg>
