<svg width="82" height="7" viewBox="0 0 82 7" fill="none" xmlns="http://www.w3.org/2000/svg">
<path d="M0.901444 6.02751C0.714784 6.02751 0.553159 5.99324 0.416576 5.92469C0.279994 5.85155 0.175281 5.75106 0.102437 5.62308C0.0341456 5.49511 0 5.34663 0 5.17753C0 4.97648 0.0455277 4.81197 0.136582 4.68399C0.23219 4.55602 0.352838 4.4532 0.498526 4.37553C0.644212 4.29787 0.796733 4.23385 0.956077 4.1836C1.11998 4.12877 1.27477 4.07852 1.42046 4.0328C1.56614 3.98256 1.68452 3.92539 1.77557 3.86143C1.87118 3.79748 1.91898 3.71289 1.91898 3.60781V3.18282C1.91898 2.99089 1.88939 2.84468 1.8302 2.74412C1.77557 2.64357 1.70045 2.57735 1.60484 2.54534C1.50924 2.5088 1.40224 2.4905 1.28387 2.4905C1.17005 2.4905 1.04713 2.50647 0.915102 2.53848C0.787623 2.5705 0.685186 2.63671 0.607792 2.73727C0.694296 2.75557 0.769417 2.80122 0.833153 2.87436C0.896889 2.9475 0.928761 3.04114 0.928761 3.1554C0.928761 3.26967 0.892341 3.36104 0.819495 3.42959C0.746648 3.49355 0.653322 3.52556 0.539501 3.52556C0.407471 3.52556 0.309587 3.48443 0.245848 3.40217C0.186662 3.31532 0.15707 3.21936 0.15707 3.11428C0.15707 2.99548 0.186662 2.89952 0.245848 2.82638C0.305034 2.75324 0.380155 2.68469 0.471209 2.62074C0.57592 2.5476 0.710229 2.48591 0.874128 2.43566C1.04258 2.38083 1.23152 2.35341 1.44094 2.35341C1.62761 2.35341 1.78696 2.37623 1.91898 2.42195C2.05101 2.46308 2.16028 2.52477 2.24678 2.60703C2.36515 2.71671 2.44255 2.85154 2.47897 3.01146C2.51539 3.16685 2.5336 3.35419 2.5336 3.57354L2.5336 5.47914C2.5336 5.5934 2.54954 5.67566 2.58141 5.7259C2.61783 5.77615 2.67246 5.8013 2.74531 5.8013C2.79539 5.8013 2.84319 5.78986 2.88872 5.76703C2.93425 5.74421 2.98888 5.7076 3.05262 5.65736L3.12774 5.77389C3.03213 5.84703 2.94108 5.90872 2.85457 5.95896C2.76807 6.00468 2.65197 6.02751 2.50629 6.02751C2.37426 6.02751 2.26499 6.00468 2.17849 5.95896C2.09199 5.91324 2.02598 5.84703 1.98045 5.76018C1.93947 5.6688 1.91898 5.55454 1.91898 5.41744C1.79606 5.62308 1.64809 5.77615 1.47509 5.87671C1.30664 5.97726 1.11542 6.02751 0.901444 6.02751ZM1.14729 5.75332C1.29753 5.75332 1.43639 5.70993 1.56387 5.62308C1.6959 5.53623 1.81427 5.406 1.91898 5.23237L1.91898 3.88885C1.86435 3.96652 1.78468 4.0328 1.67996 4.08764C1.57525 4.13788 1.46143 4.19046 1.33851 4.2453C1.21558 4.29554 1.09721 4.35723 0.983394 4.43037C0.874128 4.49892 0.783075 4.59029 0.710229 4.70456C0.637382 4.81883 0.600963 4.9673 0.600963 5.15011C0.600963 5.33293 0.648767 5.47914 0.744374 5.58881C0.844537 5.69848 0.978839 5.75332 1.14729 5.75332ZM6.63142 2.35341C7.03202 2.35341 7.3439 2.47679 7.56701 2.72356C7.79462 2.96574 7.90846 3.34507 7.90846 3.86143L5.49776 3.86143L5.49094 3.7312L7.25287 3.7312C7.26195 3.50725 7.24372 3.30161 7.19824 3.11428C7.15269 2.92235 7.07982 2.76928 6.9797 2.65501C6.8841 2.54075 6.75885 2.48365 6.6041 2.48365C6.39465 2.48365 6.20799 2.58873 6.04409 2.79896C5.88475 3.00919 5.78914 3.34274 5.75727 3.79974L5.77776 3.82716C5.76865 3.89571 5.76183 3.97111 5.75727 4.05337C5.75272 4.13562 5.75044 4.21788 5.75044 4.30013C5.75044 4.61085 5.80052 4.87819 5.90068 5.10213C6.00084 5.32607 6.1306 5.49744 6.28994 5.61623C6.45384 5.7305 6.62227 5.78759 6.79532 5.78759C6.9319 5.78759 7.06165 5.76703 7.18458 5.7259C7.3075 5.68018 7.42128 5.60711 7.52603 5.50655C7.63072 5.406 7.72176 5.27123 7.7992 5.10213L7.93578 5.15697C7.88566 5.30777 7.80371 5.45398 7.68993 5.59566C7.57609 5.73735 7.43268 5.85388 7.2597 5.94525C7.08665 6.0321 6.88635 6.07549 6.65874 6.07549C6.33092 6.07549 6.04865 6.00009 5.8119 5.84929C5.57971 5.69848 5.39988 5.49058 5.2724 5.22551C5.14948 4.95592 5.08802 4.64746 5.08802 4.30013C5.08802 3.89797 5.15175 3.55298 5.27923 3.26508C5.40671 2.97259 5.58654 2.74872 5.81873 2.59332C6.05092 2.4334 6.32181 2.35341 6.63142 2.35341ZM11.2879 2.35341C11.47 2.35341 11.6248 2.38309 11.7523 2.44252C11.8797 2.50195 11.9731 2.55679 12.0323 2.60703C12.1825 2.73041 12.2736 2.64816 12.3055 2.36026H12.4625C12.4534 2.48824 12.4466 2.6413 12.442 2.81953C12.4375 2.99315 12.4352 3.22854 12.4352 3.52556L12.2781 3.52556C12.2508 3.35645 12.203 3.19194 12.1347 3.03202C12.071 2.8721 11.9753 2.74186 11.8479 2.6413C11.7204 2.53622 11.5543 2.48365 11.3494 2.48365C11.19 2.48365 11.0557 2.52937 10.9465 2.62074C10.8417 2.70759 10.7894 2.83783 10.7894 3.01146C10.7894 3.14855 10.8304 3.26734 10.9123 3.3679C10.9943 3.46386 11.1012 3.55524 11.2333 3.64209C11.3653 3.72434 11.5087 3.81571 11.6635 3.91627C11.8365 4.02595 11.9936 4.13788 12.1347 4.25215C12.2758 4.36642 12.3874 4.49206 12.4694 4.62916C12.5558 4.76625 12.5991 4.9285 12.5991 5.11584C12.5991 5.32607 12.5445 5.50196 12.4352 5.64365C12.326 5.78533 12.1825 5.89268 12.005 5.96582C11.8319 6.03896 11.6407 6.07549 11.4313 6.07549C11.3312 6.07549 11.2355 6.06637 11.1445 6.04807C11.058 6.03436 10.9738 6.01154 10.8918 5.97953C10.8463 5.9567 10.7985 5.92928 10.7484 5.89727C10.7029 5.86526 10.6573 5.83099 10.6118 5.79445C10.5663 5.75791 10.5253 5.76018 10.4889 5.8013C10.4524 5.83784 10.4251 5.91324 10.407 6.02751H10.2499C10.259 5.8813 10.2658 5.70308 10.2704 5.49285C10.2749 5.28261 10.2772 5.0039 10.2772 4.65658H10.4343C10.4661 4.91246 10.5117 5.1364 10.5709 5.32833C10.63 5.52026 10.7234 5.67107 10.8509 5.78074C10.9783 5.88582 11.1558 5.9384 11.3835 5.9384C11.4746 5.9384 11.5656 5.91783 11.6567 5.87671C11.7523 5.83558 11.8319 5.76703 11.8957 5.67107C11.9594 5.5751 11.9913 5.44712 11.9913 5.2872C11.9913 5.08616 11.9185 4.92165 11.7728 4.79367C11.6271 4.66569 11.4427 4.53093 11.2196 4.38924C11.0557 4.28416 10.9009 4.17901 10.7553 4.07393C10.6141 3.96885 10.498 3.84999 10.407 3.71749C10.3204 3.58499 10.2772 3.425 10.2772 3.23766C10.2772 3.03202 10.3227 2.86525 10.4138 2.73727C10.5094 2.60477 10.6346 2.5088 10.7894 2.44937C10.9441 2.38542 11.1104 2.35341 11.2879 2.35341ZM15.8584 1.3115V2.45623H16.8691V2.59332H15.8584V5.24608C15.8584 5.46083 15.8971 5.61164 15.9745 5.69848C16.0519 5.78533 16.1589 5.82872 16.2954 5.82872C16.432 5.82872 16.5504 5.77389 16.6506 5.66421C16.7507 5.54994 16.8373 5.36034 16.9101 5.09527L17.0466 5.12955C17.0012 5.39462 16.9101 5.61849 16.7735 5.8013C16.6415 5.98412 16.4366 6.07549 16.1589 6.07549C16.0041 6.07549 15.8766 6.05493 15.7764 6.0138C15.6763 5.97726 15.5875 5.92243 15.5101 5.84929C15.41 5.7442 15.3394 5.61849 15.2984 5.47228C15.262 5.32607 15.2438 5.13181 15.2438 4.88963V2.59332H14.5882V2.45623H15.2438V1.40746C15.3576 1.40287 15.4669 1.39376 15.5716 1.38005C15.6763 1.36634 15.7719 1.34351 15.8584 1.3115ZM19.8843 0.612324V3.17597C20.0026 2.86525 20.1665 2.65042 20.376 2.53163C20.5899 2.41284 20.813 2.35341 21.0452 2.35341C21.2182 2.35341 21.3616 2.37623 21.4755 2.42195C21.5938 2.46768 21.6917 2.53163 21.7691 2.61389C21.8556 2.70526 21.917 2.81953 21.9535 2.95662C21.9899 3.09371 22.0081 3.27879 22.0081 3.51185V5.34204C22.0081 5.53397 22.0468 5.66421 22.1242 5.73276C22.2062 5.8013 22.3405 5.83558 22.5272 5.83558V5.97953C22.4497 5.97493 22.3314 5.97041 22.172 5.96582C22.0127 5.9567 21.8579 5.95211 21.7077 5.95211C21.5574 5.95211 21.4094 5.9567 21.2638 5.96582C21.1226 5.97041 21.0156 5.97493 20.9428 5.97953V5.83558C21.1067 5.83558 21.2228 5.8013 21.2911 5.73276C21.3594 5.66421 21.3935 5.53397 21.3935 5.34204V3.36104C21.3935 3.21936 21.3821 3.08912 21.3594 2.97033C21.3366 2.85154 21.2843 2.75557 21.2023 2.68243C21.1249 2.60929 21.0043 2.57276 20.8404 2.57276C20.6537 2.57276 20.4875 2.62533 20.3418 2.73042C20.2007 2.8355 20.0892 2.98178 20.0072 3.16911C19.9253 3.35645 19.8843 3.57128 19.8843 3.81345V5.34204C19.8843 5.53397 19.9184 5.66421 19.9867 5.73276C20.055 5.8013 20.1711 5.83558 20.335 5.83558V5.97953C20.2621 5.97493 20.1529 5.97041 20.0072 5.96582C19.8661 5.9567 19.7204 5.95211 19.5701 5.95211C19.4199 5.95211 19.2651 5.9567 19.1058 5.96582C18.9464 5.97041 18.828 5.97493 18.7507 5.97953V5.83558C18.9373 5.83558 19.0693 5.8013 19.1467 5.73276C19.2287 5.66421 19.2697 5.53397 19.2697 5.34204V1.43488C19.2697 1.22924 19.2332 1.07844 19.1604 0.982475C19.0875 0.881917 18.951 0.831673 18.7507 0.831673V0.687725C18.8963 0.701435 19.0375 0.708288 19.1741 0.708288C19.3061 0.708288 19.4312 0.701435 19.5497 0.687725C19.6726 0.669423 19.7841 0.644335 19.8843 0.612324ZM26.1254 2.35341C26.526 2.35341 26.8378 2.47679 27.0609 2.72356C27.2886 2.96574 27.4024 3.34507 27.4024 3.86143L24.9917 3.86143L24.9849 3.7312L26.7468 3.7312C26.7559 3.50725 26.7377 3.30161 26.6922 3.11428C26.6466 2.92235 26.5738 2.76928 26.4736 2.65501C26.378 2.54075 26.2528 2.48365 26.098 2.48365C25.8886 2.48365 25.702 2.58873 25.538 2.79896C25.3787 3.00919 25.283 3.34274 25.2512 3.79974L25.2717 3.82716C25.2626 3.89571 25.2557 3.97111 25.2512 4.05337C25.2467 4.13562 25.2444 4.21788 25.2444 4.30013C25.2444 4.61085 25.2945 4.87819 25.3946 5.10213C25.4948 5.32607 25.6245 5.49744 25.7839 5.61623C25.9478 5.7305 26.1162 5.78759 26.2893 5.78759C26.4258 5.78759 26.5556 5.76703 26.6785 5.7259C26.8014 5.68018 26.9152 5.60711 27.02 5.50655C27.1247 5.406 27.2157 5.27123 27.2931 5.10213L27.4297 5.15697C27.3796 5.30777 27.2976 5.45398 27.1839 5.59566C27.07 5.73735 26.9266 5.85388 26.7536 5.94525C26.5806 6.0321 26.3803 6.07549 26.1527 6.07549C25.8249 6.07549 25.5426 6.00009 25.3059 5.84929C25.0737 5.69848 24.8938 5.49058 24.7664 5.22551C24.6434 4.95592 24.582 4.64746 24.582 4.30013C24.582 3.89797 24.6457 3.55298 24.7732 3.26508C24.9006 2.97259 25.0805 2.74872 25.3127 2.59332C25.5449 2.4334 25.8157 2.35341 26.1254 2.35341ZM30.6589 1.3115V2.45623L31.6696 2.45623V2.59332L30.6589 2.59332V5.24608C30.6589 5.46083 30.6976 5.61164 30.775 5.69848C30.8524 5.78533 30.9594 5.82872 31.096 5.82872C31.2326 5.82872 31.3509 5.77389 31.4511 5.66421C31.5512 5.54994 31.6378 5.36034 31.7106 5.09527L31.8472 5.12955C31.8017 5.39462 31.7106 5.61849 31.574 5.8013C31.442 5.98412 31.2371 6.07549 30.9594 6.07549C30.8046 6.07549 30.6771 6.05493 30.577 6.0138C30.4768 5.97726 30.388 5.92243 30.3106 5.84929C30.2105 5.7442 30.1399 5.61849 30.0989 5.47228C30.0625 5.32607 30.0443 5.13181 30.0443 4.88963V2.59332L29.3887 2.59332V2.45623L30.0443 2.45623V1.40746C30.1581 1.40287 30.2674 1.39376 30.3721 1.38005C30.4768 1.36634 30.5724 1.34351 30.6589 1.3115ZM34.3911 0.735708C34.5095 0.735708 34.612 0.779098 34.6984 0.865947C34.785 0.952795 34.8282 1.05561 34.8282 1.17441C34.8282 1.2932 34.785 1.39602 34.6984 1.48287C34.612 1.56971 34.5095 1.6131 34.3911 1.6131C34.2728 1.6131 34.1703 1.56971 34.0838 1.48287C33.9974 1.39602 33.9541 1.2932 33.9541 1.17441C33.9541 1.05561 33.9974 0.952795 34.0838 0.865947C34.1703 0.779098 34.2728 0.735708 34.3911 0.735708ZM34.7462 2.37397V5.34204C34.7462 5.53397 34.785 5.66421 34.8623 5.73276C34.9443 5.8013 35.0786 5.83558 35.2652 5.83558V5.97953C35.1879 5.97493 35.0695 5.97041 34.9101 5.96582C34.7554 5.9567 34.5983 5.95211 34.4389 5.95211C34.2842 5.95211 34.1271 5.9567 33.9677 5.96582C33.8084 5.97041 33.69 5.97493 33.6126 5.97953V5.83558C33.7993 5.83558 33.9313 5.8013 34.0087 5.73276C34.0906 5.66421 34.1316 5.53397 34.1316 5.34204V3.19653C34.1316 2.99089 34.0952 2.84009 34.0223 2.74412C33.9495 2.64357 33.813 2.59332 33.6126 2.59332V2.44937C33.7583 2.46308 33.8994 2.46994 34.036 2.46994C34.1681 2.46994 34.2933 2.46308 34.4116 2.44937C34.5345 2.43107 34.6461 2.40598 34.7462 2.37397ZM38.9596 2.35341C39.1053 2.35341 39.2464 2.37171 39.383 2.40825C39.5196 2.44478 39.6425 2.49962 39.7518 2.57276C39.8565 2.6413 39.9362 2.7213 39.9908 2.81267C40.0454 2.89952 40.0727 2.99548 40.0727 3.10057C40.0727 3.22395 40.0386 3.31992 39.9703 3.38846C39.902 3.45242 39.8156 3.48443 39.7108 3.48443C39.6107 3.48443 39.5219 3.45475 39.4445 3.39532C39.3717 3.33589 39.3352 3.25137 39.3352 3.1417C39.3352 3.03661 39.3625 2.95203 39.4171 2.88807C39.4764 2.82412 39.5446 2.78299 39.622 2.76469C39.5765 2.68243 39.4946 2.61389 39.3762 2.55905C39.2624 2.50421 39.1395 2.47679 39.0074 2.47679C38.8936 2.47679 38.7798 2.50421 38.6659 2.55905C38.5522 2.61389 38.4474 2.70526 38.3518 2.83323C38.2562 2.95662 38.1788 3.12799 38.1196 3.34733C38.0605 3.56209 38.0308 3.83175 38.0308 4.15619C38.0308 4.55835 38.0764 4.87819 38.1674 5.11584C38.2585 5.35349 38.3769 5.52486 38.5225 5.62994C38.6728 5.7305 38.8367 5.78074 39.0142 5.78074C39.1326 5.78074 39.2532 5.75792 39.3762 5.71219C39.4991 5.66647 39.6152 5.5934 39.7245 5.49285C39.8337 5.38776 39.9271 5.24834 40.0045 5.07471L40.1342 5.12269C40.0887 5.2689 40.0136 5.41744 39.9088 5.56825C39.8042 5.71446 39.6676 5.83558 39.4991 5.93154C39.3307 6.02751 39.1235 6.07549 38.8776 6.07549C38.5954 6.07549 38.3405 6.00235 38.1128 5.85614C37.8852 5.70993 37.703 5.50196 37.5665 5.23237C37.4344 4.95818 37.3684 4.63375 37.3684 4.25901C37.3684 3.88426 37.4344 3.55524 37.5665 3.27193C37.703 2.98404 37.892 2.7601 38.1333 2.60018C38.3746 2.43566 38.65 2.35341 38.9596 2.35341ZM48.6593 0.605469V5.23237C48.6593 5.43801 48.6958 5.59107 48.7686 5.69163C48.846 5.7876 48.9826 5.83558 49.1784 5.83558V5.97953C49.0373 5.96582 48.8961 5.95896 48.7549 5.95896C48.6229 5.95896 48.4954 5.96582 48.3725 5.97953C48.2542 5.99324 48.1449 6.01839 48.0447 6.05493V1.42803C48.0447 1.22239 48.0083 1.07159 47.9355 0.975621C47.8627 0.875063 47.7261 0.824818 47.5257 0.824818V0.68087C47.6714 0.69458 47.8125 0.701434 47.9491 0.701434C48.0812 0.701434 48.2064 0.69458 48.3247 0.68087C48.4476 0.662569 48.5592 0.63748 48.6593 0.605469ZM47.2252 2.35341C47.4256 2.35341 47.6122 2.40139 47.7852 2.49736C47.9628 2.59332 48.0812 2.75783 48.1403 2.99089L48.0515 3.05944C47.9878 2.86751 47.8876 2.72815 47.7511 2.6413C47.6191 2.55446 47.462 2.51107 47.2799 2.51107C47.0113 2.51107 46.7859 2.65042 46.6038 2.9292C46.4262 3.20798 46.3398 3.63749 46.3443 4.21788C46.3443 4.58803 46.3784 4.89649 46.4467 5.14326C46.5196 5.38543 46.6243 5.56825 46.7608 5.69163C46.902 5.81042 47.0727 5.86985 47.273 5.86985C47.4642 5.86985 47.6373 5.7876 47.792 5.62308C47.9469 5.45857 48.0402 5.2164 48.072 4.89649L48.154 4.99245C48.1176 5.33978 48.0061 5.60711 47.8194 5.79445C47.6373 5.98179 47.3891 6.07549 47.075 6.07549C46.7927 6.07549 46.5446 6.00694 46.3306 5.86985C46.1212 5.73276 45.9596 5.52712 45.8457 5.25293C45.7365 4.97875 45.6818 4.63375 45.6818 4.21788C45.6818 3.802 45.7525 3.45701 45.8935 3.18282C46.0393 2.90404 46.2282 2.69614 46.4604 2.55905C46.6971 2.42196 46.9521 2.35341 47.2252 2.35341ZM52.8187 2.35341C53.2193 2.35341 53.5312 2.47679 53.7543 2.72356C53.9819 2.96574 54.0957 3.34507 54.0957 3.86143L51.6851 3.86143L51.6782 3.7312H53.4401C53.4492 3.50725 53.431 3.30161 53.3855 3.11428C53.34 2.92235 53.2671 2.76928 53.167 2.65501C53.0714 2.54075 52.9461 2.48365 52.7914 2.48365C52.5819 2.48365 52.3953 2.58873 52.2314 2.79896C52.072 3.00919 51.9764 3.34274 51.9446 3.79974L51.965 3.82716C51.9559 3.89571 51.9491 3.97111 51.9446 4.05337C51.94 4.13562 51.9377 4.21788 51.9377 4.30013C51.9377 4.61085 51.9878 4.87819 52.088 5.10213C52.1881 5.32607 52.3178 5.49744 52.4772 5.61623C52.6411 5.7305 52.8095 5.78759 52.9826 5.78759C53.1192 5.78759 53.2489 5.76703 53.3718 5.7259C53.4948 5.68018 53.6085 5.60711 53.7133 5.50655C53.818 5.406 53.909 5.27123 53.9865 5.10213L54.1231 5.15697C54.0729 5.30777 53.991 5.45398 53.8772 5.59566C53.7634 5.73735 53.6199 5.85388 53.447 5.94525C53.2739 6.0321 53.0736 6.07549 52.846 6.07549C52.5182 6.07549 52.2359 6.00009 51.9992 5.84929C51.767 5.69848 51.5871 5.49058 51.4597 5.22551C51.3368 4.95592 51.2753 4.64746 51.2753 4.30013C51.2753 3.89797 51.339 3.55298 51.4665 3.26508C51.594 2.97259 51.7738 2.74872 52.006 2.59332C52.2382 2.4334 52.5091 2.35341 52.8187 2.35341ZM57.4752 2.35341C57.6573 2.35341 57.8121 2.38309 57.9396 2.44252C58.067 2.50195 58.1604 2.55679 58.2196 2.60703C58.3698 2.73041 58.4608 2.64816 58.4927 2.36026H58.6498C58.6406 2.48824 58.6338 2.6413 58.6293 2.81953C58.6247 2.99315 58.6225 3.22854 58.6225 3.52556H58.4654C58.4381 3.35645 58.3903 3.19194 58.322 3.03202C58.2582 2.8721 58.1626 2.74186 58.0352 2.6413C57.9077 2.53622 57.7415 2.48365 57.5367 2.48365C57.3773 2.48365 57.243 2.52937 57.1337 2.62074C57.029 2.70759 56.9767 2.83783 56.9767 3.01146C56.9767 3.14855 57.0176 3.26734 57.0996 3.3679C57.1815 3.46386 57.2885 3.55524 57.4206 3.64209C57.5526 3.72434 57.696 3.81571 57.8508 3.91627C58.0238 4.02595 58.1808 4.13788 58.322 4.25215C58.4631 4.36642 58.5747 4.49206 58.6566 4.62916C58.7431 4.76625 58.7864 4.9285 58.7864 5.11584C58.7864 5.32607 58.7318 5.50196 58.6225 5.64365C58.5132 5.78533 58.3698 5.89268 58.1922 5.96582C58.0192 6.03896 57.828 6.07549 57.6186 6.07549C57.5184 6.07549 57.4228 6.06637 57.3318 6.04807C57.2453 6.03436 57.1611 6.01154 57.0791 5.97953C57.0336 5.9567 56.9857 5.92928 56.9357 5.89727C56.8901 5.86526 56.8446 5.83099 56.7991 5.79445C56.7536 5.75791 56.7126 5.76018 56.6762 5.8013C56.6397 5.83784 56.6124 5.91324 56.5942 6.02751H56.4372C56.4462 5.8813 56.4531 5.70308 56.4576 5.49285C56.4622 5.28261 56.4645 5.0039 56.4645 4.65658H56.6216C56.6534 4.91246 56.6989 5.1364 56.7581 5.32833C56.8173 5.52026 56.9106 5.67107 57.0381 5.78074C57.1656 5.88582 57.3431 5.9384 57.5708 5.9384C57.6618 5.9384 57.7529 5.91783 57.844 5.87671C57.9396 5.83558 58.0192 5.76703 58.083 5.67107C58.1467 5.5751 58.1786 5.44712 58.1786 5.2872C58.1786 5.08616 58.1057 4.92165 57.9601 4.79367C57.8143 4.66569 57.6299 4.53093 57.4069 4.38924C57.243 4.28416 57.0882 4.17901 56.9425 4.07393C56.8014 3.96885 56.6853 3.84999 56.5942 3.71749C56.5077 3.58499 56.4645 3.425 56.4645 3.23766C56.4645 3.03202 56.51 2.86525 56.6011 2.73727C56.6967 2.60477 56.8218 2.5088 56.9767 2.44937C57.1314 2.38542 57.2976 2.35341 57.4752 2.35341ZM62.1686 2.35341C62.3507 2.35341 62.5055 2.38309 62.633 2.44252C62.7605 2.50195 62.8538 2.55679 62.913 2.60703C63.0632 2.73041 63.1543 2.64816 63.1861 2.36026H63.3432C63.3341 2.48824 63.3273 2.6413 63.3227 2.81953C63.3182 2.99315 63.3159 3.22854 63.3159 3.52556H63.1588C63.1315 3.35645 63.0837 3.19194 63.0154 3.03202C62.9517 2.8721 62.8561 2.74186 62.7286 2.6413C62.6011 2.53622 62.4349 2.48365 62.23 2.48365C62.0707 2.48365 61.9364 2.52937 61.8271 2.62074C61.7224 2.70759 61.6701 2.83783 61.6701 3.01146C61.6701 3.14855 61.711 3.26734 61.793 3.3679C61.8749 3.46386 61.9819 3.55524 62.1139 3.64209C62.246 3.72434 62.3894 3.81571 62.5442 3.91627C62.7172 4.02595 62.8743 4.13788 63.0154 4.25215C63.1565 4.36642 63.2681 4.49206 63.35 4.62916C63.4365 4.76625 63.4798 4.9285 63.4798 5.11584C63.4798 5.32607 63.4251 5.50196 63.3159 5.64365C63.2066 5.78533 63.0632 5.89268 62.8856 5.96582C62.7127 6.03896 62.5214 6.07549 62.312 6.07549C62.2119 6.07549 62.1163 6.06637 62.0252 6.04807C61.9387 6.03436 61.8544 6.01154 61.7725 5.97953C61.727 5.9567 61.6792 5.92928 61.6291 5.89727C61.5836 5.86526 61.538 5.83099 61.4925 5.79445C61.447 5.75791 61.406 5.76018 61.3696 5.8013C61.3332 5.83784 61.3059 5.91324 61.2876 6.02751H61.1306C61.1397 5.8813 61.1465 5.70308 61.151 5.49285C61.1556 5.28261 61.1579 5.0039 61.1579 4.65658H61.3149C61.3468 4.91246 61.3924 5.1364 61.4515 5.32833C61.5107 5.52026 61.6041 5.67107 61.7315 5.78074C61.859 5.88582 62.0366 5.9384 62.2642 5.9384C62.3553 5.9384 62.4463 5.91783 62.5373 5.87671C62.633 5.83558 62.7127 5.76703 62.7764 5.67107C62.8401 5.5751 62.872 5.44712 62.872 5.2872C62.872 5.08616 62.7992 4.92165 62.6534 4.79367C62.5078 4.66569 62.3234 4.53093 62.1003 4.38924C61.9364 4.28416 61.7816 4.17901 61.6359 4.07393C61.4948 3.96885 61.3787 3.84999 61.2876 3.71749C61.2012 3.58499 61.1579 3.425 61.1579 3.23766C61.1579 3.03202 61.2034 2.86525 61.2944 2.73727C61.3901 2.60477 61.5153 2.5088 61.6701 2.44937C61.8249 2.38542 61.991 2.35341 62.1686 2.35341ZM67.2991 2.35341C67.6998 2.35341 68.0116 2.47679 68.2345 2.72356C68.4626 2.96574 68.576 3.34507 68.576 3.86143L66.1655 3.86143L66.1586 3.7312L67.9205 3.7312C67.9296 3.50725 67.9115 3.30161 67.8659 3.11428C67.8204 2.92235 67.7476 2.76928 67.6474 2.65501C67.5518 2.54075 67.4266 2.48365 67.2718 2.48365C67.0623 2.48365 66.8757 2.58873 66.7118 2.79896C66.5525 3.00919 66.4569 3.34274 66.425 3.79974L66.4454 3.82716C66.4364 3.89571 66.4295 3.97111 66.425 4.05337C66.4204 4.13562 66.4181 4.21788 66.4181 4.30013C66.4181 4.61085 66.4682 4.87819 66.5684 5.10213C66.6686 5.32607 66.7983 5.49744 66.9576 5.61623C67.1215 5.7305 67.29 5.78759 67.463 5.78759C67.5996 5.78759 67.7293 5.76703 67.8522 5.7259C67.9752 5.68018 68.0891 5.60711 68.1936 5.50655C68.2987 5.406 68.3896 5.27123 68.4667 5.10213L68.6033 5.15697C68.5535 5.30777 68.4715 5.45398 68.3575 5.59566C68.2441 5.73735 68.1007 5.85388 67.9274 5.94525C67.7544 6.0321 67.554 6.07549 67.3264 6.07549C66.9986 6.07549 66.7164 6.00009 66.4796 5.84929C66.2474 5.69848 66.0676 5.49058 65.9401 5.22551C65.8172 4.95592 65.7557 4.64746 65.7557 4.30013C65.7557 3.89797 65.8194 3.55298 65.9469 3.26508C66.0744 2.97259 66.2542 2.74872 66.4864 2.59332C66.7186 2.4334 66.9895 2.35341 67.2991 2.35341ZM72.8572 2.35341C72.9801 2.35341 73.0866 2.37856 73.1781 2.42881C73.2738 2.47905 73.3461 2.54534 73.3967 2.6276C73.4513 2.70526 73.4786 2.79437 73.4786 2.89493C73.4786 3.00919 73.4417 3.10968 73.3694 3.19653C73.3011 3.28338 73.2075 3.32677 73.0894 3.32677C72.9938 3.32677 72.9091 3.29709 72.8367 3.23766C72.7636 3.17371 72.7274 3.0846 72.7274 2.97033C72.7274 2.88348 72.75 2.81041 72.7957 2.75098C72.8456 2.68703 72.9002 2.63671 72.9596 2.60018C72.9275 2.55446 72.8797 2.53163 72.8162 2.53163C72.6748 2.53163 72.5451 2.57502 72.4269 2.66187C72.3081 2.74412 72.2084 2.85154 72.1265 2.98404C72.0445 3.11654 71.9803 3.25822 71.9352 3.40903C71.8895 3.55524 71.867 3.69233 71.867 3.82031V5.2735C71.867 5.49744 71.9305 5.64824 72.0582 5.7259C72.19 5.79904 72.3675 5.83558 72.5908 5.83558V5.97953C72.4857 5.97493 72.3382 5.97041 72.1469 5.96582C71.9557 5.9567 71.7529 5.95211 71.5392 5.95211C71.3841 5.95211 71.2291 5.9567 71.0748 5.96582C70.9245 5.97041 70.8105 5.97493 70.7333 5.97953V5.83558C70.9198 5.83558 71.0516 5.8013 71.1294 5.73276C71.2114 5.66421 71.2523 5.53397 71.2523 5.34204V3.19653C71.2523 2.99089 71.2155 2.84009 71.1431 2.74412C71.07 2.64357 70.9334 2.59332 70.7333 2.59332V2.44937C70.8788 2.46308 71.0201 2.46994 71.1567 2.46994C71.2885 2.46994 71.4135 2.46308 71.5323 2.44937C71.6553 2.43107 71.7666 2.40598 71.867 2.37397V3.23081C71.9168 3.0983 71.9871 2.96574 72.0787 2.83323C72.1743 2.69614 72.2876 2.58187 72.4201 2.4905C72.5519 2.39913 72.6974 2.35341 72.8572 2.35341ZM76.5128 1.3115V2.45623H77.5235V2.59332H76.5128V5.24608C76.5128 5.46083 76.5517 5.61164 76.6289 5.69848C76.7061 5.78533 76.8133 5.82872 76.9499 5.82872C77.0864 5.82872 77.2046 5.77389 77.305 5.66421C77.4054 5.54994 77.4914 5.36034 77.5645 5.09527L77.7011 5.12955C77.6553 5.39462 77.5645 5.61849 77.4279 5.8013C77.2961 5.98412 77.0912 6.07549 76.8133 6.07549C76.6583 6.07549 76.5312 6.05493 76.4309 6.0138C76.3305 5.97726 76.2417 5.92243 76.1645 5.84929C76.0641 5.7442 75.9938 5.61849 75.9528 5.47228C75.9166 5.32607 75.8982 5.13181 75.8982 4.88963V2.59332L75.2426 2.59332V2.45623L75.8982 2.45623V1.40746C76.0122 1.40287 76.1215 1.39376 76.226 1.38005C76.3305 1.36634 76.4261 1.34351 76.5128 1.3115ZM80.6888 2.35341C80.8711 2.35341 81.0255 2.38309 81.1532 2.44252C81.2809 2.50195 81.3738 2.55679 81.4332 2.60703C81.5834 2.73041 81.6743 2.64816 81.7064 2.36026H81.8634C81.8545 2.48824 81.8477 2.6413 81.8429 2.81953C81.8382 2.99315 81.8361 3.22854 81.8361 3.52556H81.679C81.6517 3.35645 81.6039 3.19194 81.5356 3.03202C81.4721 2.8721 81.3765 2.74186 81.2488 2.6413C81.1211 2.53622 80.9551 2.48365 80.7503 2.48365C80.5912 2.48365 80.4566 2.52937 80.3474 2.62074C80.2429 2.70759 80.1903 2.83783 80.1903 3.01146C80.1903 3.14855 80.2313 3.26734 80.3132 3.3679C80.3952 3.46386 80.5024 3.55524 80.6342 3.64209C80.766 3.72434 80.9094 3.81571 81.0644 3.91627C81.2372 4.02595 81.3943 4.13788 81.5356 4.25215C81.677 4.36642 81.7883 4.49206 81.8703 4.62916C81.957 4.76625 82 4.9285 82 5.11584C82 5.32607 81.9454 5.50196 81.8361 5.64365C81.7268 5.78533 81.5834 5.89268 81.4059 5.96582C81.2331 6.03896 81.0419 6.07549 80.8322 6.07549C80.7318 6.07549 80.6362 6.06637 80.5454 6.04807C80.4587 6.03436 80.3747 6.01154 80.2927 5.97953C80.247 5.9567 80.1992 5.92928 80.1493 5.89727C80.1036 5.86526 80.0585 5.83099 80.0127 5.79445C79.967 5.75791 79.926 5.76018 79.8898 5.8013C79.8536 5.83784 79.8263 5.91324 79.8079 6.02751H79.6508C79.6597 5.8813 79.6665 5.70308 79.6713 5.49285C79.6761 5.28261 79.6781 5.0039 79.6781 4.65658H79.8352C79.8673 4.91246 79.9123 5.1364 79.9718 5.32833C80.0312 5.52026 80.124 5.67107 80.2517 5.78074C80.3795 5.88582 80.557 5.9384 80.7844 5.9384C80.8752 5.9384 80.9668 5.91783 81.0576 5.87671C81.1532 5.83558 81.2331 5.76703 81.2966 5.67107C81.3601 5.5751 81.3922 5.44712 81.3922 5.2872C81.3922 5.08616 81.3191 4.92165 81.1737 4.79367C81.0282 4.66569 80.8438 4.53093 80.6205 4.38924C80.4566 4.28416 80.3016 4.17901 80.1561 4.07393C80.0148 3.96885 79.8987 3.84999 79.8079 3.71749C79.7211 3.58499 79.6781 3.425 79.6781 3.23766C79.6781 3.03202 79.7239 2.86525 79.8147 2.73727C79.9103 2.60477 80.0353 2.5088 80.1903 2.44937C80.3453 2.38542 80.5113 2.35341 80.6888 2.35341Z" fill="white"/>
</svg>
