<svg width="25" height="24" viewBox="0 0 25 24" fill="none" xmlns="http://www.w3.org/2000/svg">
<path d="M7.90048 9.09699H18.9724V8.39695C18.9724 7.78893 18.4803 7.29699 17.8724 7.29699H10.4122C10.2082 7.29699 10.0242 7.17298 9.94826 6.98092L9.55223 5.9889C9.38428 5.5689 8.98425 5.29688 8.53223 5.29688H4.67234C4.06432 5.29688 3.57239 5.78894 3.57239 6.39683V16.6568L5.93622 10.4491C6.24425 9.64108 7.0323 9.09704 7.90027 9.09704L7.90048 9.09699Z" fill="#B2AFBB"/>
<path d="M21.5719 10.1769C21.3772 9.89252 21.0539 9.69727 20.6722 9.69727H7.89907C7.28073 9.69727 6.71741 10.0855 6.4975 10.6633C6.4975 10.6633 3.87866 17.5376 3.87639 17.5438C3.6668 18.0942 4.08479 18.6973 4.67151 18.6973H17.8684C18.4924 18.6973 19.0575 18.3044 19.2747 17.7192C19.2747 17.7192 21.6932 11.207 21.6999 11.1888C21.8319 10.8333 21.7659 10.4608 21.5717 10.177L21.5719 10.1769Z" fill="#B2AFBB"/>
</svg>
