<svg width="20" height="20" viewBox="0 0 20 20" fill="none" xmlns="http://www.w3.org/2000/svg">
<g clip-path="url(#clip0_502_12334)">
<path d="M9.99996 18.3337C14.6023 18.3337 18.3333 14.6027 18.3333 10.0003C18.3333 5.39795 14.6023 1.66699 9.99996 1.66699C5.39759 1.66699 1.66663 5.39795 1.66663 10.0003C1.66663 14.6027 5.39759 18.3337 9.99996 18.3337Z" fill="white"/>
<path fill-rule="evenodd" clip-rule="evenodd" d="M9.00424 5.2009C9.50319 5.01722 10.0408 4.95836 10.5681 5.02899C11.0955 5.09963 11.5982 5.29787 12.0294 5.60761C12.4608 5.91746 12.8076 6.32955 13.0352 6.80785C13.2629 7.28632 13.3632 7.81418 13.3255 8.34227C13.2879 8.87031 13.1136 9.37882 12.8211 9.821C12.5287 10.263 12.128 10.6237 11.6583 10.8724C11.4378 10.989 11.2052 11.0795 10.9654 11.1425V11.6667H9.29868V10.4167C9.29868 10.1956 9.38654 9.98356 9.54291 9.82727C9.69927 9.67098 9.91134 9.58323 10.1324 9.58333C10.3946 9.58346 10.6513 9.51964 10.8786 9.39931C11.1058 9.27905 11.2951 9.10698 11.4311 8.90137C11.567 8.69594 11.646 8.46286 11.6631 8.22364C11.6802 7.98447 11.635 7.74406 11.5303 7.52403C11.4255 7.30383 11.2637 7.10964 11.0571 6.96128C10.8504 6.81282 10.6063 6.71565 10.3469 6.68091C10.0874 6.64616 9.8235 6.67532 9.58002 6.76495C9.33663 6.85455 9.12335 7.00096 8.95833 7.1881L7.70825 6.08579C8.05899 5.68803 8.50519 5.38462 9.00424 5.2009ZM10.1385 12.7539C10.5988 12.7539 10.9719 13.127 10.9719 13.5872V13.6025C10.9719 14.0628 10.5988 14.4359 10.1385 14.4359C9.6783 14.4359 9.3052 14.0628 9.3052 13.6025V13.5872C9.3052 13.127 9.6783 12.7539 10.1385 12.7539Z" fill="#363A42"/>
</g>
<defs>
<clipPath id="clip0_502_12334">
<rect width="20" height="20" fill="white"/>
</clipPath>
</defs>
</svg>
