<svg width="24" height="24" viewBox="0 0 24 24" fill="none" xmlns="http://www.w3.org/2000/svg">
<g clip-path="url(#clip0_678_13859)">
<path d="M12 22C17.5228 22 22 17.5228 22 12C22 6.47715 17.5228 2 12 2C6.47715 2 2 6.47715 2 12C2 17.5228 6.47715 22 12 22Z" stroke="white" stroke-width="2" stroke-linecap="round" stroke-linejoin="round"/>
<path d="M12.1663 16.3047V16.323" stroke="white" stroke-width="2" stroke-linecap="round" stroke-linejoin="round"/>
<path d="M10 7.96433C10.3095 7.6134 10.7051 7.3435 11.1506 7.17951C11.5961 7.01552 12.077 6.96271 12.5491 7.02594C13.0211 7.08917 13.4692 7.26641 13.852 7.54134C14.2347 7.81626 14.5399 8.18003 14.7393 8.59913C14.9388 9.01823 15.0261 9.47919 14.9932 9.93955C14.9604 10.3999 14.8084 10.8449 14.5514 11.2334C14.2943 11.622 13.9404 11.9417 13.5222 12.163C13.104 12.3843 12.635 12.5002 12.1585 12.5V14" stroke="white" stroke-width="2" stroke-linejoin="round"/>
</g>
<defs>
<clipPath id="clip0_678_13859">
<rect width="24" height="24" fill="white"/>
</clipPath>
</defs>
</svg>
