<svg width="24" height="24" viewBox="0 0 24 24" fill="none" xmlns="http://www.w3.org/2000/svg">
<path d="M3.41607 3.42006L3.41708 3.41906L3.41942 3.41621C5.28133 1.5543 8.31396 1.55713 10.1785 3.4214C11.5103 4.75331 13.6742 10.2833 14.9164 13.6669L15.0441 13.5391C15.1734 13.4098 15.3808 13.4051 15.5158 13.5279L21.4798 18.964C22.1734 19.6585 22.1734 20.7875 21.4798 21.482C21.1343 21.8276 20.6809 22.0013 20.2253 22.0013C19.7664 22.0013 19.3057 21.8247 18.9521 21.4708L13.5267 15.5179C13.4031 15.3831 13.4086 15.1756 13.5374 15.0463L13.6672 14.9165C10.8392 13.8821 4.81014 11.5701 3.41996 10.1804C1.55655 8.31661 1.55548 5.28548 3.41607 3.42006ZM4.18489 3.70437L13.3938 12.9125C10.9354 8.83324 9.13848 6.1495 8.29465 5.3052C7.18533 4.19588 5.85675 3.54866 4.88606 3.54866C4.62015 3.54916 4.38492 3.60319 4.18489 3.70437ZM3.70773 4.19271C3.24178 5.12744 3.8937 6.88583 5.30406 8.29622C5.90214 8.89429 7.72175 10.2617 12.8891 13.3744L3.70773 4.19271ZM9.69575 3.90472C8.56202 2.77146 6.93054 2.45721 5.50563 2.92885C6.54474 3.12135 7.731 3.77593 8.77759 4.82304C9.76434 5.80979 11.665 8.75795 13.4247 11.6459C11.8201 7.50314 10.4656 4.67495 9.69575 3.90472ZM11.6708 13.4352C7.95397 11.1734 5.64979 9.60798 4.8209 8.77914C3.7743 7.73254 3.12053 6.54675 2.92855 5.50683C2.4566 6.93277 2.76983 8.56472 3.90206 9.69695C4.90888 10.7038 8.82533 12.3347 11.6708 13.4352Z" fill="#B2AFBB"/>
</svg>
